<svg xmlns="http://www.w3.org/2000/svg" width="160" height="160" viewBox="0 0 160 160" fill="none">
  <rect width="160" height="160" rx="12" fill="white"/>
  <path d="M80 20C46.8628 20 20 46.8629 20 80C20 113.137 46.8628 140 80 140C109.73 140 134.41 118.377 139.17 90H138.74C134.299 107.252 118.638 120 100 120C77.9087 120 60 102.091 60 80C60 57.9086 77.9087 40 100 40C118.638 40 134.299 52.7477 138.74 70H139.17C134.41 41.6229 109.73 20 80 20Z" fill="#131313"/>
  <path d="M20 80C20 46.8629 46.8629 20 80 20C109.73 20 134.41 41.6229 139.17 70H98.7398C94.2994 52.7477 78.6384 40 60 40C37.9086 40 20 57.9086 20 80Z" fill="#787878" fill-opacity="0.45"/>
  <path d="M20 80C20 113.137 46.8629 140 80 140C109.73 140 134.41 118.377 139.17 90H98.7398C94.2994 107.252 78.6384 120 60 120C37.9086 120 20 102.091 20 80Z" fill="#787878" fill-opacity="0.45"/>
</svg>